<?xml version="1.0" encoding="UTF-8"?>
<!DOCTYPE svg PUBLIC "-//W3C//DTD SVG 1.1//EN" "http://www.w3.org/Graphics/SVG/1.1/DTD/svg11.dtd">
<!-- Creator: CorelDRAW 2020 (64 Bit) -->
<svg xmlns="http://www.w3.org/2000/svg" xml:space="preserve" width="12.6998mm" height="2.7092mm" version="1.1" style="shape-rendering:geometricPrecision; text-rendering:geometricPrecision; image-rendering:optimizeQuality; fill-rule:evenodd; clip-rule:evenodd"
viewBox="0 0 1269.98 270.92"
 xmlns:xlink="http://www.w3.org/1999/xlink"
 xmlns:xodm="http://www.corel.com/coreldraw/odm/2003">
 <defs>
  <style type="text/css">
   <![CDATA[
    .fil0 {fill:#212529;fill-rule:nonzero}
   ]]>
  </style>
 </defs>
 <g id="Camada_x0020_1">
  <metadata id="CorelCorpID_0Corel-Layer"/>
  <path class="fil0" d="M21.42 118.28l0 53.58 -12.81 0 0 -137.89 35.59 0c7.26,0 13.66,0.89 19.24,2.7 5.58,1.8 10.27,4.4 14.15,7.81 3.84,3.38 6.76,7.55 8.73,12.51 2,4.92 2.99,10.57 2.99,16.94 0,6.4 -1.12,12.31 -3.38,17.73 -2.24,5.45 -5.45,10.11 -9.66,14.05 -4.2,3.97 -9.32,7.02 -15.33,9.26 -6.04,2.2 -12.87,3.31 -20.48,3.31l-19.04 0zm0 -72.49l0 60.67 18.25 0c11.88,0 20.88,-2.76 27.05,-8.24 6.14,-5.51 9.23,-13.29 9.23,-23.34 0,-19.4 -11.36,-29.09 -34.05,-29.09l-20.48 0zm95.76 78.99c0.07,6.04 0.89,11.46 2.4,16.29 1.54,4.79 3.78,8.89 6.66,12.21 2.86,3.35 6.37,5.91 10.51,7.65 4.14,1.77 8.8,2.66 14.02,2.66 11.06,0 21.57,-3.88 31.45,-11.66l0 12.18c-9.42,6.73 -20.85,10.11 -34.24,10.11 -6.63,0 -12.61,-1.15 -17.99,-3.48 -5.39,-2.29 -9.98,-5.64 -13.76,-10.04 -3.77,-4.4 -6.7,-9.82 -8.76,-16.22 -2.04,-6.43 -3.09,-13.76 -3.09,-21.96 0,-7.39 1.15,-14.22 3.38,-20.52 2.23,-6.27 5.35,-11.72 9.32,-16.32 3.98,-4.59 8.7,-8.17 14.15,-10.77 5.45,-2.59 11.43,-3.9 17.9,-3.9 6.33,0 11.95,1.11 16.81,3.31 4.89,2.23 8.96,5.39 12.27,9.49 3.32,4.1 5.82,9.09 7.56,15 1.74,5.91 2.59,12.51 2.59,19.8l0 6.17 -71.18 0zm58.47 -10.83c-0.16,-10.25 -2.62,-18.19 -7.28,-23.84 -4.7,-5.64 -11.2,-8.47 -19.54,-8.47 -4.17,0 -8.04,0.73 -11.59,2.2 -3.54,1.48 -6.69,3.61 -9.39,6.4 -2.69,2.8 -4.92,6.21 -6.66,10.21 -1.77,4.01 -3.02,8.51 -3.71,13.5l58.17 0zm102.37 53.45c-7.33,4.43 -16.19,6.69 -26.56,6.82 -7.06,0.07 -13.4,-1.15 -19.05,-3.64 -5.64,-2.53 -10.47,-6.01 -14.44,-10.44 -3.97,-4.47 -6.99,-9.72 -9.13,-15.79 -2.1,-6.04 -3.18,-12.64 -3.18,-19.77 0,-7.38 1.15,-14.31 3.38,-20.81 2.23,-6.53 5.52,-12.18 9.82,-17.04 4.3,-4.82 9.55,-8.67 15.75,-11.49 6.24,-2.82 13.33,-4.23 21.38,-4.23 8.14,0 15.56,1.57 22.29,4.72l0 13.07c-7.16,-4.76 -14.94,-7.16 -23.28,-7.16 -5.81,0 -11.03,1.12 -15.56,3.32 -4.56,2.23 -8.4,5.25 -11.49,9.06 -3.12,3.81 -5.48,8.27 -7.12,13.39 -1.65,5.09 -2.47,10.51 -2.47,16.22 0,5.26 0.69,10.31 2.07,15.1 1.38,4.83 3.51,9.07 6.34,12.78 2.85,3.67 6.47,6.63 10.83,8.79 4.37,2.2 9.49,3.29 15.4,3.29 9.22,0 17.56,-2.76 25.02,-8.31l0 12.12zm88.08 4.46l0 -16.68 -0.36 0c-6.7,12.71 -17.04,19.04 -31.09,19.04 -23.41,0 -35.09,-14.31 -35.09,-42.91l0 -57.94 12.31 0 0 55.58c0,11.82 2.1,20.52 6.3,26.17 4.2,5.64 10.64,8.47 19.27,8.47 4.24,0 8.11,-0.82 11.59,-2.47 3.51,-1.64 6.53,-3.94 9.06,-6.92 2.53,-2.96 4.5,-6.54 5.91,-10.71 1.41,-4.16 2.1,-8.79 2.1,-13.85l0 -56.27 12.31 0 0 98.49 -12.31 0zm100.82 0l0 -17.53 -0.39 0c-3.19,6.3 -7.59,11.19 -13.14,14.67 -5.54,3.48 -11.81,5.22 -18.77,5.22 -4.77,0 -9.03,-0.69 -12.87,-2.03 -3.81,-1.35 -7.03,-3.25 -9.69,-5.71 -2.66,-2.5 -4.73,-5.45 -6.17,-8.93 -1.45,-3.48 -2.17,-7.29 -2.17,-11.49 0,-8.93 2.76,-16.06 8.28,-21.34 5.51,-5.32 13.85,-8.77 25.01,-10.38l29.91 -4.33c0,-18.91 -7.35,-28.37 -22.03,-28.37 -11.49,0 -22.13,4.21 -31.94,12.61l0 -13.46c2.07,-1.44 4.4,-2.79 6.99,-3.97 2.59,-1.18 5.32,-2.2 8.21,-3.09 2.89,-0.85 5.84,-1.51 8.89,-2 3.06,-0.49 6.01,-0.72 8.9,-0.72 10.97,0 19.27,3.08 24.89,9.22 5.58,6.17 8.4,15.33 8.4,27.55l0 64.08 -12.31 0zm-25.38 -47.83c-4.43,0.62 -8.21,1.41 -11.36,2.39 -3.15,0.96 -5.74,2.27 -7.81,3.91 -2.04,1.64 -3.55,3.64 -4.5,6.04 -0.95,2.43 -1.44,5.38 -1.44,8.93 0,2.63 0.46,5.06 1.38,7.32 0.95,2.23 2.29,4.17 4.03,5.81 1.78,1.64 3.94,2.92 6.47,3.81 2.53,0.89 5.39,1.35 8.6,1.35 4.37,0 8.37,-0.82 12.02,-2.5 3.64,-1.67 6.83,-4 9.49,-6.93 2.66,-2.95 4.72,-6.5 6.23,-10.6 1.51,-4.1 2.27,-8.57 2.27,-13.39l0 -9.72 -25.38 3.58zm116.19 -38.02c-2.89,-2.13 -6.6,-3.18 -11.16,-3.18 -3.28,0 -6.17,0.62 -8.67,1.87 -2.49,1.24 -4.69,2.92 -6.6,5.05 -1.87,2.1 -3.48,4.57 -4.79,7.36 -1.31,2.79 -2.36,5.68 -3.19,8.7 -0.78,3.02 -1.37,6.07 -1.7,9.12 -0.36,3.09 -0.56,6.01 -0.56,8.77l0 48.16 -12.21 0 0 -98.49 12.21 0 0 21.11 0.39 0c1.15,-3.58 2.63,-6.83 4.4,-9.65 1.74,-2.86 3.78,-5.29 6.11,-7.22 2.3,-1.97 4.79,-3.45 7.55,-4.47 2.72,-1.02 5.58,-1.54 8.6,-1.54 1.97,0 3.74,0.13 5.32,0.39 1.58,0.23 3.02,0.62 4.3,1.15l0 12.87zm23.93 -37.46c-2.36,0 -4.43,-0.82 -6.17,-2.49 -1.71,-1.68 -2.6,-3.81 -2.6,-6.37 0,-2.5 0.89,-4.57 2.6,-6.21 1.74,-1.64 3.81,-2.46 6.17,-2.46 1.22,0 2.36,0.2 3.45,0.62 1.11,0.43 2.03,1.02 2.85,1.78 0.79,0.78 1.45,1.7 1.91,2.75 0.49,1.05 0.72,2.24 0.72,3.52 0,1.21 -0.2,2.36 -0.66,3.48 -0.46,1.08 -1.08,2.03 -1.93,2.82 -0.82,0.82 -1.78,1.44 -2.83,1.87 -1.05,0.46 -2.23,0.69 -3.51,0.69zm-6.07 123.31l0 -98.49 12.31 0 0 98.49 -12.31 0zm38.51 -17.7c1.84,1.48 3.87,2.8 6.04,3.94 2.17,1.15 4.43,2.14 6.73,2.99 2.3,0.82 4.63,1.45 6.99,1.87 2.33,0.43 4.57,0.63 6.67,0.63 14.64,0 21.93,-5.49 21.93,-16.42 0,-2.49 -0.5,-4.66 -1.55,-6.5 -1.01,-1.84 -2.49,-3.51 -4.4,-5.02 -1.93,-1.51 -4.23,-2.89 -6.92,-4.17 -2.69,-1.28 -5.75,-2.63 -9.16,-4.04 -4.53,-1.87 -8.47,-3.77 -11.72,-5.68 -3.29,-1.94 -5.98,-4.04 -8.08,-6.3 -2.13,-2.3 -3.71,-4.8 -4.73,-7.52 -1.01,-2.72 -1.54,-5.84 -1.54,-9.29 0,-4.37 0.95,-8.27 2.86,-11.66 1.87,-3.41 4.43,-6.3 7.65,-8.66 3.18,-2.37 6.89,-4.2 11.09,-5.45 4.21,-1.25 8.6,-1.87 13.23,-1.87 8.54,0 15.96,1.6 22.33,4.79l0 12.97c-7.39,-4.76 -15.33,-7.13 -23.87,-7.13 -3.09,0 -5.88,0.4 -8.4,1.15 -2.56,0.79 -4.7,1.87 -6.5,3.29 -1.81,1.41 -3.19,3.11 -4.21,5.08 -0.98,1.97 -1.47,4.14 -1.47,6.5 0,2.47 0.39,4.6 1.15,6.41 0.78,1.83 1.97,3.51 3.61,4.99 1.64,1.44 3.74,2.85 6.33,4.23 2.63,1.35 5.78,2.79 9.49,4.33 4.76,1.91 8.86,3.81 12.31,5.72 3.45,1.9 6.31,3.94 8.57,6.17 2.23,2.2 3.91,4.66 4.99,7.42 1.08,2.72 1.64,5.88 1.64,9.45 0,4.44 -0.92,8.41 -2.76,11.86 -1.8,3.48 -4.33,6.4 -7.58,8.76 -3.25,2.36 -7.02,4.17 -11.39,5.39 -4.37,1.21 -9.13,1.83 -14.25,1.83 -9.95,0 -18.29,-2.1 -25.08,-6.27l0 -13.79zm127.9 16.49c-4.2,2.13 -8.83,3.18 -13.82,3.18 -15.92,0 -23.86,-9.16 -23.86,-27.48l0 -62.15 -17.31 0 0 -10.83 17.31 0 0 -24.72 12.31 -4.04 0 28.76 25.37 0 0 10.83 -25.37 0 0 60.18c0,6.67 1.08,11.46 3.28,14.41 2.17,2.93 5.84,4.4 11.06,4.4 3.84,0 7.52,-1.15 11.03,-3.44l0 10.9zm77.06 1.21l0 -17.53 -0.39 0c-3.19,6.3 -7.59,11.19 -13.14,14.67 -5.54,3.48 -11.81,5.22 -18.77,5.22 -4.77,0 -9.03,-0.69 -12.87,-2.03 -3.81,-1.35 -7.03,-3.25 -9.69,-5.71 -2.66,-2.5 -4.73,-5.45 -6.17,-8.93 -1.45,-3.48 -2.17,-7.29 -2.17,-11.49 0,-8.93 2.76,-16.06 8.28,-21.34 5.51,-5.32 13.85,-8.77 25.01,-10.38l29.91 -4.33c0,-18.91 -7.35,-28.37 -22.03,-28.37 -11.49,0 -22.13,4.21 -31.94,12.61l0 -13.46c2.07,-1.44 4.4,-2.79 6.99,-3.97 2.59,-1.18 5.32,-2.2 8.21,-3.09 2.89,-0.85 5.84,-1.51 8.89,-2 3.06,-0.49 6.01,-0.72 8.9,-0.72 10.97,0 19.27,3.08 24.89,9.22 5.58,6.17 8.4,15.33 8.4,27.55l0 64.08 -12.31 0zm-25.38 -47.83c-4.43,0.62 -8.21,1.41 -11.36,2.39 -3.15,0.96 -5.74,2.27 -7.81,3.91 -2.04,1.64 -3.55,3.64 -4.5,6.04 -0.95,2.43 -1.44,5.38 -1.44,8.93 0,2.63 0.46,5.06 1.38,7.32 0.95,2.23 2.29,4.17 4.03,5.81 1.78,1.64 3.94,2.92 6.47,3.81 2.53,0.89 5.39,1.35 8.6,1.35 4.37,0 8.37,-0.82 12.02,-2.5 3.64,-1.67 6.83,-4 9.49,-6.93 2.66,-2.95 4.72,-6.5 6.23,-10.6 1.51,-4.1 2.27,-8.57 2.27,-13.39l0 -9.72 -25.38 3.58zm91.27 -2.2l0 50.03 -22.78 0 0 -137.89 41.82 0c15.83,0 28.11,3.68 36.84,11.07 8.73,7.35 13.1,17.73 13.1,31.12 0,13.4 -4.56,24.36 -13.69,32.9 -9.1,8.5 -21.41,12.77 -36.94,12.77l-18.35 0zm0 -68.95l0 50.23 14.81 0c9.82,0 17.27,-2.26 22.42,-6.79 5.12,-4.57 7.68,-10.93 7.68,-19.17 0,-16.19 -9.42,-24.27 -28.26,-24.27l-16.65 0zm198.91 118.98l-26.75 0 -22.03 -36.9c-1.97,-3.42 -3.91,-6.3 -5.81,-8.7 -1.91,-2.4 -3.81,-4.37 -5.78,-5.91 -1.94,-1.54 -4.07,-2.66 -6.4,-3.38 -2.3,-0.69 -4.89,-1.05 -7.78,-1.05l-9.23 0 0 55.94 -22.78 0 0 -137.89 45.37 0c6.5,0 12.44,0.76 17.89,2.3 5.45,1.55 10.21,3.88 14.25,6.99 4.04,3.09 7.19,7 9.46,11.63 2.29,4.66 3.41,10.08 3.41,16.31 0,4.86 -0.72,9.36 -2.13,13.43 -1.45,4.07 -3.52,7.68 -6.18,10.87 -2.66,3.18 -5.87,5.87 -9.62,8.11 -3.74,2.26 -7.97,4 -12.63,5.22l0 0.36c2.49,1.41 4.66,2.99 6.53,4.66 1.87,1.71 3.61,3.45 5.28,5.25 1.68,1.81 3.32,3.84 4.96,6.11 1.64,2.26 3.45,4.92 5.45,7.91l24.52 38.74zm-83.78 -119.37l0 44.91 19.04 0c3.52,0 6.8,-0.56 9.75,-1.64 2.99,-1.08 5.59,-2.66 7.75,-4.73 2.2,-2.03 3.88,-4.56 5.09,-7.52 1.25,-2.95 1.84,-6.27 1.84,-9.91 0,-6.63 -2.07,-11.79 -6.24,-15.53 -4.17,-3.71 -10.18,-5.58 -17.99,-5.58l-19.24 0zm154.77 121.73c-19.86,0 -35.79,-6.43 -47.77,-19.33 -11.95,-12.91 -17.93,-29.68 -17.93,-50.33 0,-22.19 6.11,-39.92 18.29,-53.12 12.18,-13.23 28.73,-19.83 49.61,-19.83 19.37,0 34.96,6.4 46.81,19.24 11.82,12.84 17.73,29.61 17.73,50.33 0,22.52 -6.04,40.31 -18.15,53.41 -12.15,13.1 -28.34,19.63 -48.59,19.63zm1.05 -122.52c-12.61,0 -22.88,4.73 -30.83,14.15 -7.91,9.42 -11.88,21.83 -11.88,37.2 0,15.33 3.87,27.67 11.55,37.03 7.68,9.36 17.76,14.05 30.21,14.05 13.19,0 23.63,-4.46 31.25,-13.36 7.62,-8.93 11.46,-21.41 11.46,-37.43 0,-16.48 -3.71,-29.18 -11.13,-38.18 -7.39,-8.96 -17.6,-13.46 -30.63,-13.46z"/>
  <path class="fil0" d="M882.7 235.25c3.42,1.46 6.01,3.39 7.74,5.81 1.74,2.42 2.61,5.29 2.61,8.59 0,4.83 -1.55,8.73 -4.63,11.68 -3.07,2.96 -7.15,4.44 -12.24,4.44 -4.14,0 -7.61,-1.05 -10.42,-3.17 -2.8,-2.12 -4.69,-5.13 -5.68,-9.03l5.68 -2.81c0.77,3.19 2.03,5.61 3.8,7.25 1.75,1.64 3.96,2.47 6.62,2.47 3.14,0 5.68,-0.91 7.63,-2.71 1.94,-1.82 2.91,-4.17 2.91,-7.07 0,-2.35 -0.67,-4.39 -2.04,-6.13 -1.35,-1.74 -3.38,-3.2 -6.12,-4.4l-6.4 -2.74c-3.49,-1.46 -6.11,-3.34 -7.81,-5.64 -1.72,-2.3 -2.58,-5.05 -2.58,-8.27 0,-3.74 1.39,-6.83 4.17,-9.27 2.79,-2.44 6.33,-3.67 10.65,-3.67 3.15,0 5.9,0.68 8.2,2.01 2.32,1.35 4.13,3.33 5.41,5.95l-5.17 3.3c-1.17,-2.03 -2.49,-3.54 -3.95,-4.54 -1.46,-0.99 -3.12,-1.49 -4.96,-1.49 -2.35,0 -4.28,0.72 -5.77,2.16 -1.5,1.43 -2.25,3.26 -2.25,5.49 0,1.86 0.58,3.48 1.73,4.85 1.14,1.37 2.93,2.57 5.35,3.63l7.52 3.31zm44.36 24.71c2.87,0 5.62,-0.54 8.21,-1.63 2.6,-1.09 4.94,-2.69 7.02,-4.77 2.07,-2.06 3.64,-4.39 4.71,-7 1.08,-2.62 1.62,-5.39 1.62,-8.31 0,-2.94 -0.54,-5.75 -1.63,-8.41 -1.09,-2.66 -2.66,-5.01 -4.7,-7.04 -2.06,-2.06 -4.39,-3.63 -6.99,-4.71 -2.58,-1.08 -5.34,-1.62 -8.24,-1.62 -2.92,0 -5.69,0.54 -8.3,1.62 -2.61,1.08 -4.92,2.65 -6.93,4.71 -2.06,2.08 -3.63,4.44 -4.71,7.07 -1.08,2.64 -1.62,5.44 -1.62,8.38 0,2.92 0.53,5.68 1.59,8.27 1.07,2.59 2.65,4.93 4.74,7.04 2.11,2.11 4.45,3.7 7.01,4.78 2.58,1.08 5.33,1.62 8.22,1.62zm28.11 -21.71c0,3.77 -0.7,7.31 -2.08,10.64 -1.39,3.33 -3.41,6.29 -6.07,8.88 -2.66,2.58 -5.73,4.57 -9.19,5.98 -3.47,1.4 -7.05,2.1 -10.77,2.1 -3.71,0 -7.28,-0.7 -10.73,-2.1 -3.43,-1.41 -6.49,-3.4 -9.15,-5.98 -2.69,-2.62 -4.72,-5.58 -6.13,-8.92 -1.4,-3.32 -2.1,-6.86 -2.1,-10.6 0,-3.76 0.7,-7.31 2.1,-10.66 1.41,-3.33 3.44,-6.31 6.13,-8.93 2.64,-2.56 5.68,-4.53 9.14,-5.92 3.44,-1.39 7.03,-2.08 10.74,-2.08 3.74,0 7.34,0.69 10.81,2.08 3.46,1.39 6.51,3.36 9.15,5.92 2.66,2.59 4.68,5.56 6.07,8.9 1.38,3.35 2.08,6.9 2.08,10.69zm10.25 26.2l0 -52.62 27.74 0 0 5.74 -21.49 0 0 15.09 21.49 0 0 5.81 -21.49 0 0 25.98 -6.25 0zm46.5 0l0 -46.66 -14.87 0 0 -5.96 35.99 0 0 5.96 -14.79 0 0 46.66 -6.33 0zm21.25 -52.62l6.78 0 13.33 38.71 13.91 -40.77 14.04 40.77 13.4 -38.71 6.76 0 -20.37 54.68 -13.76 -40.69 -13.7 40.69 -20.39 -54.68zm89.38 11.78l-8.37 19.35 16.74 0 -8.37 -19.35zm0 -13.84l23.93 54.68 -6.79 0 -6.83 -16.12 -20.54 0 -6.83 16.12 -6.77 0 23.83 -54.68zm29.37 54.68l0 -52.62 12.36 0c3.52,0 6.11,0.2 7.74,0.59 1.64,0.41 3.09,1.08 4.34,2.04 1.56,1.21 2.76,2.86 3.62,4.9 0.87,2.05 1.3,4.32 1.3,6.81 0,4.31 -1.2,7.59 -3.6,9.83 -2.42,2.24 -5.94,3.36 -10.59,3.36l-1.12 0 20.09 25.09 -7.94 0 -19.21 -25.09 -0.88 0 0 25.09 -6.11 0zm6.11 -47.32l0 17.59 4.77 0c4.89,0 8.17,-0.63 9.82,-1.89 1.66,-1.25 2.48,-3.45 2.48,-6.59 0,-3.37 -0.85,-5.72 -2.55,-7.08 -1.71,-1.35 -4.96,-2.03 -9.75,-2.03l-4.77 0zm33.27 47.32l0 -52.62 27.74 0 0 5.74 -21.49 0 0 15.09 21.49 0 0 5.81 -21.49 0 0 20.17 21.49 0 0 5.81 -27.74 0z"/>
  <path class="fil0" d="M1233.57 7.62l-6.54 0 0 19.54 -3.78 0 0 -19.54 -6.53 0 0 -3.22 16.85 0 0 3.22zm27.79 19.54l-3.74 0 0 -14.73c0,-1.21 0.07,-2.68 0.22,-4.43l-0.07 0c-0.23,0.99 -0.43,1.71 -0.61,2.14l-6.8 17.02 -2.6 0 -6.81 -16.89c-0.19,-0.5 -0.4,-1.26 -0.61,-2.27l-0.06 0c0.08,0.91 0.12,2.4 0.12,4.46l0 14.7 -3.49 0 0 -22.76 5.32 0 5.98 15.16c0.46,1.16 0.76,2.03 0.9,2.6l0.07 0c0.4,-1.2 0.71,-2.08 0.96,-2.67l6.1 -15.09 5.12 0 0 22.76z"/>
 </g>
</svg>
