<?xml version="1.0" encoding="UTF-8"?>
<!DOCTYPE svg PUBLIC "-//W3C//DTD SVG 1.1//EN" "http://www.w3.org/Graphics/SVG/1.1/DTD/svg11.dtd">
<!-- Creator: CorelDRAW 2020 (64 Bit) -->
<svg xmlns="http://www.w3.org/2000/svg" xml:space="preserve" width="12.6998mm" height="6.7732mm" version="1.1" style="shape-rendering:geometricPrecision; text-rendering:geometricPrecision; image-rendering:optimizeQuality; fill-rule:evenodd; clip-rule:evenodd"
viewBox="0 0 1269.98 677.32"
 xmlns:xlink="http://www.w3.org/1999/xlink"
 xmlns:xodm="http://www.corel.com/coreldraw/odm/2003">
 <defs>
  <style type="text/css">
   <![CDATA[
    .fil2 {fill:black}
    .fil1 {fill:black;fill-rule:nonzero}
    .fil0 {fill:black}
   ]]>
  </style>
 </defs>
 <g id="Camada_x0020_1">
  <metadata id="CorelCorpID_0Corel-Layer"/>
  <g id="_1984880641776">
   <polygon class="fil0" points="337.49,8.12 400.53,8.12 532.98,334.47 470.47,334.47 "/>
   <polygon class="fil0" points="600.26,8.12 663.31,8.12 795.76,334.47 733.24,334.47 "/>
   <polygon class="fil0" points="663.31,8.12 600.26,8.12 531.92,176.52 563.24,253.7 "/>
   <polygon class="fil0" points="929.26,8.12 866.22,8.12 796.29,180.44 827.61,257.61 "/>
   <polygon class="fil0" points="1195.22,8.12 1132.17,8.12 999.72,334.47 1062.24,334.47 "/>
   <path class="fil1" d="M366.94 669.2c-4.51,0 -8.83,-0.38 -12.96,-1.13 -4.12,-0.74 -7.87,-1.83 -11.21,-3.25l1.77 -13.6c4.11,1.76 8.14,3.09 12.1,4.01 3.95,0.9 7.7,1.36 11.2,1.36 4.49,0 7.87,-0.79 10.16,-2.37 2.29,-1.59 3.44,-3.92 3.44,-6.98 0,-3.99 -2.27,-7.03 -6.82,-9.11l-12.38 -5.88c-5.56,-2.62 -9.84,-5.85 -12.84,-9.69 -3,-3.84 -4.51,-8.26 -4.51,-13.26 0,-6.94 2.21,-12.33 6.63,-16.13 4.43,-3.8 10.68,-5.71 18.78,-5.71 5.08,0 9.75,0.84 14.03,2.5 4.28,1.66 8.17,4.17 11.73,7.53l-9.25 10.18c-2.87,-2.54 -5.66,-4.45 -8.37,-5.73 -2.69,-1.3 -5.39,-1.93 -8.08,-1.95 -3.52,0.02 -6.23,0.81 -8.18,2.39 -1.93,1.59 -2.9,3.9 -2.9,6.92 0,2.08 0.66,3.92 1.98,5.5 1.32,1.59 3.23,3.02 5.73,4.3l11.14 5.54c5.72,2.83 10.09,6.1 13.13,9.82 3.04,3.71 4.57,7.99 4.57,12.84 0,7.13 -2.45,12.55 -7.36,16.3 -4.91,3.73 -12.09,5.6 -21.53,5.6zm69.93 0c-19.93,0 -29.91,-13.45 -29.91,-40.32 0,-27.61 9.98,-41.42 29.91,-41.42 19.93,0 29.88,13.81 29.88,41.42 0,26.87 -9.95,40.32 -29.88,40.32zm0 -12.56c10.53,-0.03 15.78,-9.28 15.78,-27.76 0.04,-19.26 -5.22,-28.87 -15.78,-28.89 -10.53,0.04 -15.78,9.67 -15.78,28.89 -0.04,18.52 5.21,27.76 15.78,27.76zm41.97 11.43l0 -79.48 13.51 0 0 79.48 -13.51 0zm0 0l0 -12.42 53.75 0.06 0 12.36 -53.75 0zm92.16 1.13c-17.39,0 -26.09,-8.89 -26.09,-26.66l0 -53.95 13.49 0 0 53.95c0,4.59 1.04,8.07 3.12,10.42 2.06,2.35 5.29,3.53 9.71,3.53 8.54,-0.04 12.82,-4.7 12.82,-13.95l0 -53.95 13.48 0 0 53.95c0,8.89 -2.25,15.56 -6.78,19.99 -4.51,4.43 -11.1,6.67 -19.75,6.67zm60.68 -1.13l-0.06 -79.48 13.49 0 0.06 79.48 -13.49 0zm-22.95 -67.12l0 -12.36 59.35 0 0 12.42 -59.35 -0.06zm90.07 67.12l-0.06 -79.48 13.49 0 0.06 79.48 -13.49 0zm-17.96 0l0 -12.27 49.49 0.06 0 12.21 -49.49 0zm0 -67.27l0 -12.21 49.49 0 0 12.21 -49.49 0zm91.92 68.4c-19.93,0 -29.9,-13.45 -29.9,-40.32 0,-27.61 9.97,-41.42 29.9,-41.42 19.93,0 29.88,13.81 29.88,41.42 0,26.87 -9.95,40.32 -29.88,40.32zm0 -12.56c10.53,-0.03 15.78,-9.28 15.78,-27.76 0.04,-19.26 -5.21,-28.87 -15.78,-28.89 -10.53,0.04 -15.78,9.67 -15.78,28.89 -0.04,18.52 5.21,27.76 15.78,27.76zm73.73 11.43l-17.52 -61.47 -5.77 0 0 -18.01 10.19 0 17.52 61.46 3.42 0 0 18.02 -7.84 0zm-32.42 0l0 -79.48 13.16 0 0 79.48 -13.16 0zm38.58 0l0 -79.48 13.14 0 0 79.48 -13.14 0zm51.72 1.13c-4.51,0 -8.83,-0.38 -12.96,-1.13 -4.12,-0.74 -7.87,-1.83 -11.21,-3.25l1.77 -13.6c4.11,1.76 8.14,3.09 12.1,4.01 3.95,0.9 7.7,1.36 11.2,1.36 4.49,0 7.87,-0.79 10.16,-2.37 2.29,-1.59 3.44,-3.92 3.44,-6.98 0,-3.99 -2.27,-7.03 -6.82,-9.11l-12.38 -5.88c-5.56,-2.62 -9.84,-5.85 -12.84,-9.69 -3,-3.84 -4.51,-8.26 -4.51,-13.26 0,-6.94 2.21,-12.33 6.63,-16.13 4.43,-3.8 10.68,-5.71 18.78,-5.71 5.08,0 9.74,0.84 14.02,2.5 4.28,1.66 8.18,4.17 11.74,7.53l-9.25 10.18c-2.87,-2.54 -5.66,-4.45 -8.37,-5.73 -2.69,-1.3 -5.39,-1.93 -8.08,-1.95 -3.52,0.02 -6.23,0.81 -8.18,2.39 -1.93,1.59 -2.9,3.9 -2.9,6.92 0,2.08 0.66,3.92 1.98,5.5 1.32,1.59 3.23,3.02 5.73,4.3l11.14 5.54c5.72,2.83 10.09,6.1 13.13,9.82 3.04,3.71 4.57,7.99 4.57,12.84 0,7.13 -2.45,12.55 -7.36,16.3 -4.91,3.73 -12.09,5.6 -21.53,5.6z"/>
   <polygon class="fil2" points="961.57,276.5 1059.96,276.5 1059.96,334.47 937.89,334.47 "/>
   <polygon class="fil0" points="74.76,8.12 137.81,8.12 270.26,334.47 207.74,334.47 "/>
   <polygon class="fil2" points="308.41,276.5 210.02,276.5 210.02,334.47 332.09,334.47 "/>
  </g>
 </g>
</svg>
