<?xml version="1.0" encoding="UTF-8"?>
<!DOCTYPE svg PUBLIC "-//W3C//DTD SVG 1.1//EN" "http://www.w3.org/Graphics/SVG/1.1/DTD/svg11.dtd">
<!-- Creator: CorelDRAW 2020 (64 Bit) -->
<svg xmlns="http://www.w3.org/2000/svg" xml:space="preserve" width="25.5692mm" height="19.5578mm" version="1.1" style="shape-rendering:geometricPrecision; text-rendering:geometricPrecision; image-rendering:optimizeQuality; fill-rule:evenodd; clip-rule:evenodd"
viewBox="0 0 2556.92 1955.78"
 xmlns:xlink="http://www.w3.org/1999/xlink"
 xmlns:xodm="http://www.corel.com/coreldraw/odm/2003">
 <defs>
  <style type="text/css">
   <![CDATA[
    .fil0 {fill:white;fill-rule:nonzero}
   ]]>
  </style>
 </defs>
 <g id="Camada_x0020_1">
  <metadata id="CorelCorpID_0Corel-Layer"/>
  <g id="_2283679789376">
   <path class="fil0" d="M327.51 904.13l0 270.8 -123.32 0 0 -746.3 226.37 0c85.66,0 152.1,19.9 199.37,59.88 47.27,39.79 70.9,95.95 70.9,168.44 0,72.5 -24.7,131.85 -74.1,178.05 -49.22,46.03 -115.84,69.13 -199.9,69.13l-99.32 0zm0 -373.15l0 271.86 80.14 0c53.12,0 93.45,-12.25 121.36,-36.78 27.71,-24.69 41.58,-59.17 41.58,-103.77 0,-87.61 -51,-131.31 -153,-131.31l-90.08 0zm1076.63 643.95l-144.83 0 -119.23 -199.73c-10.66,-18.49 -21.15,-34.11 -31.44,-47.08 -10.32,-12.98 -20.62,-23.64 -31.28,-31.98 -10.48,-8.37 -22.04,-14.39 -34.66,-18.32 -12.43,-3.73 -26.46,-5.67 -42.11,-5.67l-49.92 0 0 302.78 -123.31 0 0 -746.3 245.55 0c35.19,0 67.35,4.08 96.84,12.44 29.49,8.35 55.26,20.96 77.12,37.85 21.86,16.69 38.93,37.84 51.18,62.9 12.44,25.23 18.48,54.55 18.48,88.31 0,26.29 -3.92,50.64 -11.54,72.68 -7.83,22.02 -19.02,41.58 -33.41,58.81 -14.4,17.23 -31.81,31.8 -52.07,43.89 -20.27,12.27 -43.18,21.67 -68.41,28.26l0 1.95c13.5,7.63 25.23,16.16 35.36,25.24 10.13,9.22 19.55,18.64 28.61,28.42 9.06,9.76 17.94,20.79 26.83,33.05 8.89,12.26 18.66,26.66 29.5,42.82l132.74 209.68zm-453.47 -646.09l0 243.08 103.05 0c19.01,0 36.78,-3.02 52.78,-8.89 16.16,-5.85 30.2,-14.39 41.94,-25.58 11.9,-11.02 20.97,-24.7 27.54,-40.68 6.75,-16 9.95,-33.94 9.95,-53.68 0,-35.88 -11.19,-63.79 -33.76,-84.04 -22.57,-20.07 -55.09,-30.21 -97.38,-30.21l-104.12 0zm837.63 658.87c-107.5,0 -193.68,-34.83 -258.55,-104.64 -64.67,-69.84 -97,-160.64 -97,-272.42 0,-120.1 33.04,-216.05 98.97,-287.5 65.92,-71.61 155.48,-107.32 268.49,-107.32 104.83,0 189.23,34.65 253.37,104.13 63.97,69.48 95.96,160.28 95.96,272.41 0,121.88 -32.69,218.19 -98.26,289.09 -65.75,70.89 -153.35,106.25 -262.98,106.25zm5.69 -663.14c-68.23,0 -123.86,25.6 -166.86,76.6 -42.81,50.99 -64.32,118.15 -64.32,201.32 0,82.98 20.97,149.8 62.54,200.42 41.58,50.65 96.13,76.06 163.47,76.06 71.44,0 127.94,-24.17 169.16,-72.32 41.24,-48.34 62.03,-115.86 62.03,-202.57 0,-89.2 -20.07,-157.97 -60.25,-206.64 -39.98,-48.52 -95.23,-72.87 -165.77,-72.87z"/>
   <path class="fil0" d="M314.93 1518.01c18.52,7.89 32.52,18.38 41.88,31.45 9.43,13.09 14.14,28.61 14.14,46.47 0,26.15 -8.36,47.27 -25.02,63.26 -16.66,15.99 -38.7,24.03 -66.25,24.03 -22.44,0 -41.22,-5.71 -56.42,-17.19 -15.14,-11.48 -25.35,-27.74 -30.73,-48.86l30.73 -15.2c4.18,17.27 11.02,30.34 20.57,39.23 9.5,8.9 21.45,13.35 35.85,13.35 17,0 30.74,-4.92 41.29,-14.67 10.49,-9.83 15.73,-22.57 15.73,-38.23 0,-12.75 -3.65,-23.78 -11.02,-33.2 -7.3,-9.43 -18.32,-17.32 -33.11,-23.83l-34.66 -14.8c-18.91,-7.89 -33.05,-18.06 -42.28,-30.54 -9.3,-12.41 -13.94,-27.35 -13.94,-44.74 0,-20.24 7.5,-36.97 22.56,-50.18 15.08,-13.2 34.25,-19.84 57.62,-19.84 17.07,0 31.94,3.65 44.42,10.88 12.54,7.3 22.3,17.99 29.26,32.2l-28 17.85c-6.31,-11.02 -13.48,-19.19 -21.39,-24.56 -7.89,-5.38 -16.86,-8.1 -26.8,-8.1 -12.75,0 -23.17,3.92 -31.27,11.68 -8.1,7.77 -12.15,17.66 -12.15,29.75 0,10.08 3.12,18.85 9.35,26.21 6.19,7.43 15.87,13.94 28.95,19.65l40.69 17.93zm240.11 133.75c15.52,0 30.39,-2.92 44.4,-8.82 14.07,-5.92 26.75,-14.55 38.04,-25.83 11.14,-11.16 19.64,-23.76 25.48,-37.9 5.85,-14.14 8.77,-29.14 8.77,-44.94 0,-15.93 -2.92,-31.13 -8.83,-45.54 -5.91,-14.4 -14.41,-27.08 -25.42,-38.1 -11.16,-11.16 -23.76,-19.65 -37.84,-25.49 -14.01,-5.84 -28.94,-8.76 -44.6,-8.76 -15.81,0 -30.8,2.92 -44.95,8.76 -14.14,5.84 -26.62,14.33 -37.51,25.49 -11.14,11.28 -19.64,24.02 -25.48,38.3 -5.85,14.27 -8.77,29.41 -8.77,45.34 0,15.8 2.86,30.73 8.64,44.74 5.77,14 14.33,26.68 25.61,38.1 11.42,11.42 24.1,20.05 37.98,25.89 13.94,5.84 28.81,8.76 44.48,8.76zm152.13 -117.49c0,20.37 -3.79,39.56 -11.28,57.54 -7.5,18.06 -18.46,34.06 -32.86,48.07 -14.41,14 -30.99,24.75 -49.72,32.4 -18.79,7.55 -38.16,11.34 -58.27,11.34 -20.13,0 -39.44,-3.79 -58.09,-11.34 -18.59,-7.65 -35.12,-18.4 -49.51,-32.4 -14.55,-14.15 -25.57,-30.21 -33.2,-48.26 -7.56,-17.99 -11.36,-37.11 -11.36,-57.35 0,-20.38 3.8,-39.57 11.36,-57.69 7.63,-18.06 18.65,-34.19 33.2,-48.33 14.26,-13.86 30.72,-24.55 49.45,-32.06 18.64,-7.49 38.02,-11.28 58.15,-11.28 20.23,0 39.69,3.79 58.47,11.28 18.72,7.51 35.25,18.2 49.52,32.06 14.4,14.02 25.36,30.07 32.86,48.13 7.49,18.12 11.28,37.37 11.28,57.89zm55.43 141.78l0 -284.77 150.15 0 0 31.07 -116.29 0 0 81.64 116.29 0 0 31.47 -116.29 0 0 140.59 -33.86 0zm251.66 0l0 -252.51 -80.45 0 0 -32.26 194.75 0 0 32.26 -80.05 0 0 252.51 -34.25 0zm115.04 -284.77l36.63 0 72.17 209.5 75.26 -220.64 76.01 220.64 72.55 -209.5 36.58 0 -110.26 295.93 -74.48 -220.25 -74.14 220.25 -110.32 -295.93zm483.7 63.73l-45.27 104.74 90.6 0 -45.33 -104.74zm0 -74.87l129.51 295.91 -36.7 0 -36.99 -87.22 -111.17 0 -36.99 87.22 -36.64 0 128.98 -295.91zm158.98 295.91l0 -284.77 66.91 0c19.05,0 33.06,1.07 41.88,3.19 8.89,2.19 16.74,5.84 23.5,11.02 8.44,6.57 14.93,15.47 19.58,26.55 4.72,11.08 7.04,23.37 7.04,36.85 0,23.29 -6.51,41.09 -19.52,53.16 -13.07,12.15 -32.12,18.2 -57.28,18.2l-6.04 0 108.73 135.8 -43.01 0 -103.95 -135.8 -4.79 0 0 135.8 -33.05 0zm33.05 -256.08l0 95.18 25.83 0c26.48,0 44.21,-3.39 53.16,-10.22 8.97,-6.78 13.41,-18.65 13.41,-35.65 0,-18.25 -4.58,-31 -13.8,-38.37 -9.23,-7.3 -26.82,-10.94 -52.77,-10.94l-25.83 0zm180.09 256.08l0 -284.77 150.15 0 0 31.07 -116.28 0 0 81.64 116.28 0 0 31.47 -116.28 0 0 109.13 116.28 0 0 31.46 -150.15 0z"/>
   <path class="fil0" d="M2213.94 286.01l-35.43 0 0 105.82 -20.46 0 0 -105.82 -35.36 0 0 -17.44 91.25 0 0 17.44zm150.46 105.82l-20.27 0 0 -79.77c0,-6.54 0.4,-14.52 1.19,-23.98l-0.35 0c-1.26,5.38 -2.37,9.25 -3.34,11.6l-36.8 92.15 -14.09 0 -36.89 -91.44c-1.03,-2.71 -2.15,-6.82 -3.28,-12.31l-0.33 0c0.44,4.94 0.68,12.97 0.68,24.16l0 79.59 -18.9 0 0 -123.26 28.78 0 32.4 82.08c2.47,6.31 4.08,11.01 4.85,14.1l0.41 0c2.14,-6.46 3.85,-11.27 5.16,-14.45l33.01 -81.73 27.77 0 0 123.26z"/>
  </g>
 </g>
</svg>
