<?xml version="1.0" encoding="UTF-8"?>
<!DOCTYPE svg PUBLIC "-//W3C//DTD SVG 1.1//EN" "http://www.w3.org/Graphics/SVG/1.1/DTD/svg11.dtd">
<!-- Creator: CorelDRAW 2020 (64 Bit) -->
<svg xmlns="http://www.w3.org/2000/svg" xml:space="preserve" width="88.0532mm" height="19.5578mm" version="1.1" style="shape-rendering:geometricPrecision; text-rendering:geometricPrecision; image-rendering:optimizeQuality; fill-rule:evenodd; clip-rule:evenodd"
viewBox="0 0 8805.32 1955.78"
 xmlns:xlink="http://www.w3.org/1999/xlink"
 xmlns:xodm="http://www.corel.com/coreldraw/odm/2003">
 <defs>
  <style type="text/css">
   <![CDATA[
    .fil0 {fill:white;fill-rule:nonzero}
   ]]>
  </style>
 </defs>
 <g id="Camada_x0020_1">
  <metadata id="CorelCorpID_0Corel-Layer"/>
  <g id="_2283462295328">
   <path class="fil0" d="M1081.97 889.17l0 289.98 -69.29 0 0 -746.29 192.61 0c39.27,0 73.92,4.79 104.12,14.56 30.21,9.78 55.62,23.82 76.59,42.3 20.79,18.3 36.6,40.86 47.27,67.7 10.83,26.65 16.17,57.22 16.17,91.68 0,34.65 -6.05,66.64 -18.31,95.95 -12.08,29.51 -29.49,54.74 -52.23,76.06 -22.76,21.49 -50.47,38.03 -82.98,50.1 -32.71,11.92 -69.66,17.96 -110.89,17.96l-103.06 0zm0 -392.35l0 328.38 98.8 0c64.32,0 113,-14.93 146.41,-44.6 33.23,-29.86 49.94,-71.96 49.94,-126.34 0,-105.02 -61.49,-157.44 -184.27,-157.44l-110.88 0zm518.33 427.53c0.36,32.69 4.8,62.01 12.97,88.13 8.35,25.94 20.43,48.16 36.07,66.1 15.46,18.12 34.48,31.98 56.86,41.4 22.39,9.6 47.63,14.4 75.87,14.4 59.89,0 116.74,-20.97 170.24,-63.08l0 65.92c-51,36.43 -112.84,54.73 -185.34,54.73 -35.9,0 -68.23,-6.22 -97.37,-18.84 -29.14,-12.44 -54.02,-30.56 -74.46,-54.37 -20.42,-23.82 -36.24,-53.13 -47.43,-87.78 -11.02,-34.83 -16.71,-74.45 -16.71,-118.87 0,-39.98 6.22,-76.94 18.31,-111.07 12.07,-33.93 28.96,-63.42 50.45,-88.3 21.51,-24.87 47.1,-44.24 76.59,-58.28 29.5,-14.04 61.84,-21.16 96.84,-21.16 34.29,0 64.68,6.05 90.98,17.96 26.47,12.08 48.51,29.14 66.45,51.35 17.95,22.21 31.46,49.22 40.88,81.21 9.41,31.98 14.04,67.69 14.04,107.14l0 33.41 -385.24 0zm316.47 -58.64c-0.89,-55.44 -14.22,-98.45 -39.45,-129.01 -25.41,-30.56 -60.59,-45.83 -105.72,-45.83 -22.57,0 -43.54,3.9 -62.73,11.9 -19.19,7.99 -36.25,19.54 -50.82,34.65 -14.57,15.1 -26.66,33.58 -36.07,55.26 -9.6,21.68 -16.35,46.02 -20.08,73.03l314.87 0zm554.04 289.28c-39.63,23.99 -87.6,36.25 -143.75,36.96 -38.2,0.35 -72.51,-6.22 -103.07,-19.72 -30.56,-13.69 -56.67,-32.53 -78.18,-56.52 -21.5,-24.16 -37.84,-52.59 -49.4,-85.46 -11.37,-32.7 -17.23,-68.41 -17.23,-106.97 0,-39.98 6.21,-77.48 18.3,-112.66 12.09,-35.36 29.86,-65.92 53.13,-92.21 23.28,-26.13 51.71,-46.92 85.3,-62.2 33.76,-15.28 72.14,-22.93 115.67,-22.93 44.07,0 84.23,8.54 120.64,25.6l0 70.72c-38.73,-25.76 -80.84,-38.73 -125.97,-38.73 -31.45,0 -59.71,6.03 -84.23,17.94 -24.69,12.08 -45.48,28.44 -62.19,49.04 -16.89,20.61 -29.68,44.77 -38.56,72.5 -8.89,27.54 -13.32,56.85 -13.32,87.78 0,28.42 3.73,55.8 11.19,81.74 7.46,26.11 19.01,49.04 34.29,69.11 15.47,19.91 35.01,35.91 58.64,47.63 23.64,11.9 51.35,17.77 83.34,17.77 49.93,0 95.06,-14.93 135.4,-44.96l0 65.57zm476.74 24.16l0 -90.26 -1.95 0c-36.25,68.77 -92.23,103.06 -168.28,103.06 -126.69,0 -189.94,-77.47 -189.94,-232.24l0 -313.63 66.62 0 0 300.84c0,63.96 11.37,111.05 34.13,141.61 22.74,30.56 57.57,45.85 104.3,45.85 22.92,0 43.88,-4.45 62.72,-13.33 19.01,-8.89 35.36,-21.33 49.05,-37.5 13.67,-15.99 24.34,-35.35 31.98,-57.92 7.64,-22.56 11.37,-47.62 11.37,-74.99l0 -304.56 66.64 0 0 533.07 -66.64 0zm545.68 0l0 -94.88 -2.13 0c-17.24,34.11 -41.05,60.6 -71.08,79.42 -30.03,18.84 -63.97,28.26 -101.63,28.26 -25.78,0 -48.87,-3.73 -69.66,-11.02 -20.61,-7.28 -38.03,-17.59 -52.42,-30.91 -14.39,-13.52 -25.59,-29.51 -33.41,-48.33 -7.82,-18.84 -11.72,-39.45 -11.72,-62.2 0,-48.34 14.92,-86.89 44.78,-115.5 29.85,-28.79 74.98,-47.44 135.4,-56.15l161.87 -23.45c0,-102.35 -39.8,-153.52 -119.23,-153.52 -62.2,0 -119.77,22.74 -172.89,68.22l0 -72.84c11.19,-7.82 23.81,-15.11 37.85,-21.51 14.04,-6.4 28.78,-11.9 44.42,-16.7 15.63,-4.62 31.62,-8.17 48.16,-10.84 16.52,-2.67 32.51,-3.92 48.15,-3.92 59.34,0 104.3,16.71 134.68,49.94 30.21,33.41 45.5,82.99 45.5,149.08l0 346.85 -66.64 0zm-137.35 -258.89c-23.99,3.37 -44.43,7.64 -61.48,12.97 -17.06,5.15 -31.1,12.26 -42.3,21.14 -11.01,8.89 -19.19,19.73 -24.34,32.7 -5.15,13.15 -7.82,29.14 -7.82,48.33 0,14.22 2.48,27.36 7.47,39.63 5.15,12.08 12.43,22.56 21.85,31.45 9.59,8.88 21.33,15.81 35,20.61 13.69,4.79 29.14,7.29 46.56,7.29 23.63,0 45.32,-4.45 65.04,-13.5 19.71,-9.07 36.95,-21.69 51.35,-37.5 14.39,-15.99 25.58,-35.18 33.76,-57.4 8.17,-22.21 12.26,-46.37 12.26,-72.49l0 -52.6 -137.35 19.37zm628.83 -205.77c-15.63,-11.55 -35.71,-17.22 -60.41,-17.22 -17.77,0 -33.4,3.37 -46.91,10.12 -13.5,6.75 -25.41,15.81 -35.71,27.36 -10.14,11.37 -18.84,24.7 -25.94,39.81 -7.11,15.09 -12.81,30.73 -17.24,47.08 -4.27,16.35 -7.47,32.88 -9.24,49.4 -1.95,16.71 -3.02,32.52 -3.02,47.44l0 260.67 -66.1 0 0 -533.07 66.1 0 0 114.26 2.13 0c6.22,-19.37 14.21,-36.96 23.81,-52.25 9.42,-15.45 20.43,-28.61 33.05,-39.08 12.44,-10.67 25.94,-18.66 40.88,-24.17 14.74,-5.51 30.19,-8.36 46.55,-8.36 10.65,0 20.25,0.72 28.78,2.14 8.53,1.25 16.35,3.38 23.27,6.22l0 69.65zm129.54 -202.74c-12.79,0 -23.99,-4.44 -33.41,-13.5 -9.23,-9.07 -14.02,-20.62 -14.02,-34.48 0,-13.5 4.79,-24.69 14.02,-33.58 9.42,-8.88 20.62,-13.33 33.41,-13.33 6.57,0 12.79,1.07 18.66,3.38 6.05,2.31 11.02,5.51 15.46,9.59 4.26,4.27 7.81,9.25 10.3,14.94 2.67,5.68 3.91,12.07 3.91,19 0,6.58 -1.06,12.79 -3.55,18.84 -2.48,5.86 -5.86,11.02 -10.48,15.28 -4.44,4.45 -9.59,7.82 -15.29,10.13 -5.68,2.49 -12.07,3.73 -19.01,3.73zm-32.87 667.4l0 -533.07 66.63 0 0 533.07 -66.63 0zm208.43 -95.77c9.95,7.99 20.97,15.11 32.69,21.32 11.73,6.22 23.99,11.56 36.43,16.18 12.44,4.43 25.06,7.8 37.85,10.12 12.62,2.31 24.69,3.38 36.06,3.38 79.26,0 118.71,-29.68 118.71,-88.85 0,-13.5 -2.67,-25.23 -8.36,-35.19 -5.5,-9.94 -13.5,-19.01 -23.8,-27.18 -10.49,-8.18 -22.93,-15.63 -37.5,-22.57 -14.57,-6.92 -31.09,-14.21 -49.58,-21.85 -24.51,-10.13 -45.84,-20.43 -63.43,-30.75 -17.77,-10.47 -32.34,-21.84 -43.71,-34.11 -11.55,-12.44 -20.09,-25.94 -25.59,-40.68 -5.5,-14.76 -8.35,-31.63 -8.35,-50.3 0,-23.63 5.15,-44.77 15.45,-63.07 10.14,-18.49 23.99,-34.12 41.41,-46.92 17.23,-12.79 37.32,-22.74 60.06,-29.49 22.74,-6.75 46.55,-10.14 71.61,-10.14 46.2,0 86.36,8.72 120.82,25.96l0 70.19c-39.98,-25.77 -82.98,-38.56 -129.17,-38.56 -16.71,0 -31.8,2.13 -45.49,6.21 -13.87,4.26 -25.41,10.13 -35.18,17.78 -9.78,7.63 -17.24,16.87 -22.75,27.54 -5.34,10.65 -7.99,22.38 -7.99,35.18 0,13.32 2.13,24.87 6.22,34.64 4.25,9.96 10.65,19.01 19.54,27.01 8.88,7.82 20.26,15.46 34.29,22.93 14.22,7.28 31.28,15.1 51.36,23.45 25.77,10.31 47.98,20.61 66.63,30.92 18.66,10.3 34.12,21.32 46.38,33.41 12.08,11.9 21.14,25.22 27.01,40.16 5.86,14.74 8.89,31.8 8.89,51.17 0,23.99 -4.98,45.48 -14.94,64.14 -9.77,18.84 -23.45,34.66 -41.04,47.45 -17.59,12.79 -38.03,22.57 -61.66,29.14 -23.64,6.57 -49.4,9.95 -77.11,9.95 -53.85,0 -98.98,-11.37 -135.76,-33.94l0 -74.63zm692.28 89.2c-22.74,11.55 -47.8,17.24 -74.81,17.24 -86.18,0 -129.19,-49.58 -129.19,-148.73l0 -336.37 -93.63 0 0 -58.64 93.63 0 0 -133.79 66.64 -21.86 0 155.65 137.36 0 0 58.64 -137.36 0 0 325.71c0,36.07 5.87,62.01 17.77,78.01 11.74,15.81 31.63,23.81 59.89,23.81 20.79,0 40.68,-6.22 59.7,-18.66l0 58.99zm417.04 6.57l0 -94.88 -2.13 0c-17.24,34.11 -41.05,60.6 -71.08,79.42 -30.04,18.84 -63.97,28.26 -101.64,28.26 -25.77,0 -48.87,-3.73 -69.66,-11.02 -20.61,-7.28 -38.02,-17.59 -52.42,-30.91 -14.39,-13.52 -25.58,-29.51 -33.4,-48.33 -7.82,-18.84 -11.73,-39.45 -11.73,-62.2 0,-48.34 14.93,-86.89 44.78,-115.5 29.86,-28.79 74.99,-47.44 135.4,-56.15l161.88 -23.45c0,-102.35 -39.81,-153.52 -119.24,-153.52 -62.19,0 -119.76,22.74 -172.89,68.22l0 -72.84c11.2,-7.82 23.81,-15.11 37.85,-21.51 14.04,-6.4 28.79,-11.9 44.43,-16.7 15.63,-4.62 31.62,-8.17 48.15,-10.84 16.52,-2.67 32.51,-3.92 48.15,-3.92 59.35,0 104.3,16.71 134.69,49.94 30.21,33.41 45.49,82.99 45.49,149.08l0 346.85 -66.63 0zm-137.36 -258.89c-23.99,3.37 -44.42,7.64 -61.47,12.97 -17.07,5.15 -31.11,12.26 -42.3,21.14 -11.02,8.89 -19.19,19.73 -24.34,32.7 -5.15,13.15 -7.82,29.14 -7.82,48.33 0,14.22 2.48,27.36 7.47,39.63 5.15,12.08 12.42,22.56 21.84,31.45 9.6,8.88 21.33,15.81 35.01,20.61 13.69,4.79 29.14,7.29 46.55,7.29 23.64,0 45.32,-4.45 65.04,-13.5 19.72,-9.07 36.96,-21.69 51.35,-37.5 14.39,-15.99 25.59,-35.18 33.76,-57.4 8.17,-22.21 12.27,-46.37 12.27,-72.49l0 -52.6 -137.36 19.37zm493.98 -11.9l0 270.79 -123.32 0 0 -746.29 226.37 0c85.65,0 152.1,19.9 199.37,59.88 47.27,39.79 70.9,95.96 70.9,168.45 0,72.49 -24.7,131.84 -74.09,178.04 -49.23,46.02 -115.85,69.13 -199.9,69.13l-99.33 0zm0 -373.16l0 271.87 80.13 0c53.13,0 93.46,-12.25 121.37,-36.78 27.71,-24.7 41.58,-59.17 41.58,-103.77 0,-87.61 -51,-131.32 -153,-131.32l-90.08 0zm1076.63 643.95l-144.83 0 -119.23 -199.72c-10.65,-18.49 -21.14,-34.11 -31.44,-47.08 -10.32,-12.98 -20.62,-23.64 -31.28,-31.99 -10.48,-8.36 -22.04,-14.39 -34.66,-18.31 -12.42,-3.72 -26.46,-5.67 -42.1,-5.67l-49.93 0 0 302.77 -123.32 0 0 -746.29 245.56 0c35.18,0 67.35,4.09 96.85,12.44 29.49,8.34 55.25,20.96 77.11,37.85 21.86,16.7 38.93,37.84 51.18,62.9 12.44,25.23 18.48,54.55 18.48,88.3 0,26.31 -3.91,50.65 -11.54,72.69 -7.82,22.02 -19.02,41.58 -33.41,58.8 -14.39,17.24 -31.81,31.81 -52.07,43.9 -20.26,12.26 -43.18,21.67 -68.41,28.25l0 1.96c13.51,7.64 25.23,16.16 35.36,25.23 10.13,9.23 19.55,18.65 28.61,28.42 9.06,9.77 17.94,20.79 26.83,33.06 8.89,12.26 18.66,26.65 29.5,42.82l132.74 209.67zm-453.47 -646.07l0 243.07 103.05 0c19.02,0 36.78,-3.02 52.78,-8.89 16.16,-5.85 30.2,-14.39 41.94,-25.58 11.9,-11.02 20.97,-24.7 27.54,-40.69 6.75,-15.99 9.95,-33.93 9.95,-53.67 0,-35.88 -11.2,-63.79 -33.76,-84.04 -22.57,-20.08 -55.09,-30.2 -97.38,-30.2l-104.12 0zm837.63 658.87c-107.5,0 -193.68,-34.83 -258.54,-104.66 -64.68,-69.83 -97.01,-160.63 -97.01,-272.4 0,-120.12 33.04,-216.07 98.97,-287.51 65.92,-71.61 155.47,-107.32 268.49,-107.32 104.83,0 189.23,34.66 253.38,104.13 63.97,69.48 95.95,160.28 95.95,272.4 0,121.89 -32.69,218.2 -98.26,289.1 -65.74,70.9 -153.34,106.26 -262.98,106.26zm5.69 -663.14c-68.24,0 -123.86,25.58 -166.86,76.58 -42.81,51 -64.32,118.17 -64.32,201.33 0,82.98 20.97,149.79 62.54,200.43 41.58,50.64 96.13,76.05 163.48,76.05 71.43,0 127.93,-24.16 169.16,-72.32 41.23,-48.34 62.02,-115.86 62.02,-202.56 0,-89.21 -20.08,-157.97 -60.25,-206.65 -39.98,-48.52 -95.23,-72.86 -165.77,-72.86z"/>
   <path class="fil0" d="M5743.17 1522.24c18.52,7.89 32.52,18.38 41.88,31.45 9.43,13.09 14.14,28.61 14.14,46.47 0,26.15 -8.36,47.27 -25.02,63.26 -16.66,15.99 -38.7,24.03 -66.25,24.03 -22.44,0 -41.22,-5.71 -56.42,-17.19 -15.14,-11.48 -25.35,-27.74 -30.73,-48.86l30.73 -15.2c4.18,17.27 11.02,30.34 20.57,39.23 9.5,8.9 21.45,13.35 35.85,13.35 17,0 30.74,-4.92 41.29,-14.67 10.49,-9.83 15.73,-22.57 15.73,-38.23 0,-12.75 -3.65,-23.78 -11.02,-33.2 -7.3,-9.43 -18.32,-17.32 -33.11,-23.83l-34.66 -14.8c-18.91,-7.89 -33.05,-18.06 -42.28,-30.54 -9.3,-12.41 -13.94,-27.35 -13.94,-44.74 0,-20.24 7.5,-36.97 22.56,-50.18 15.08,-13.2 34.25,-19.84 57.62,-19.84 17.07,0 31.94,3.65 44.42,10.88 12.54,7.3 22.3,17.99 29.26,32.2l-28 17.85c-6.31,-11.02 -13.48,-19.19 -21.39,-24.56 -7.89,-5.38 -16.86,-8.1 -26.8,-8.1 -12.75,0 -23.17,3.92 -31.27,11.68 -8.1,7.77 -12.15,17.66 -12.15,29.75 0,10.08 3.12,18.85 9.35,26.21 6.19,7.43 15.87,13.94 28.95,19.65l40.69 17.93zm240.11 133.75c15.52,0 30.39,-2.92 44.4,-8.82 14.07,-5.92 26.75,-14.55 38.04,-25.83 11.14,-11.16 19.64,-23.76 25.48,-37.9 5.85,-14.14 8.77,-29.14 8.77,-44.94 0,-15.93 -2.92,-31.13 -8.83,-45.54 -5.91,-14.4 -14.41,-27.08 -25.42,-38.1 -11.16,-11.16 -23.76,-19.65 -37.84,-25.49 -14.01,-5.84 -28.94,-8.76 -44.6,-8.76 -15.81,0 -30.8,2.92 -44.95,8.76 -14.14,5.84 -26.62,14.33 -37.51,25.49 -11.14,11.28 -19.64,24.02 -25.48,38.3 -5.85,14.27 -8.77,29.41 -8.77,45.34 0,15.8 2.86,30.73 8.64,44.74 5.77,14 14.33,26.68 25.61,38.1 11.42,11.42 24.1,20.05 37.98,25.89 13.94,5.84 28.81,8.76 44.48,8.76zm152.13 -117.49c0,20.37 -3.79,39.56 -11.28,57.54 -7.5,18.06 -18.46,34.06 -32.86,48.07 -14.41,14 -30.99,24.75 -49.72,32.4 -18.79,7.55 -38.16,11.34 -58.27,11.34 -20.13,0 -39.44,-3.79 -58.09,-11.34 -18.59,-7.65 -35.12,-18.4 -49.51,-32.4 -14.55,-14.15 -25.57,-30.21 -33.2,-48.26 -7.56,-17.99 -11.36,-37.11 -11.36,-57.35 0,-20.38 3.8,-39.57 11.36,-57.69 7.63,-18.06 18.65,-34.19 33.2,-48.33 14.26,-13.86 30.72,-24.55 49.45,-32.06 18.64,-7.49 38.02,-11.28 58.15,-11.28 20.23,0 39.69,3.79 58.47,11.28 18.72,7.51 35.25,18.2 49.52,32.06 14.4,14.02 25.36,30.07 32.86,48.13 7.49,18.12 11.28,37.37 11.28,57.89zm55.43 141.78l0 -284.77 150.15 0 0 31.07 -116.29 0 0 81.64 116.29 0 0 31.47 -116.29 0 0 140.59 -33.86 0zm251.66 0l0 -252.51 -80.45 0 0 -32.26 194.75 0 0 32.26 -80.05 0 0 252.51 -34.25 0zm115.04 -284.77l36.63 0 72.17 209.5 75.26 -220.64 76.01 220.64 72.55 -209.5 36.58 0 -110.26 295.93 -74.48 -220.25 -74.14 220.25 -110.32 -295.93zm483.7 63.73l-45.27 104.74 90.6 0 -45.33 -104.74zm0 -74.87l129.51 295.91 -36.7 0 -36.99 -87.22 -111.17 0 -36.99 87.22 -36.64 0 128.98 -295.91zm158.98 295.91l0 -284.77 66.91 0c19.05,0 33.06,1.07 41.88,3.19 8.89,2.19 16.74,5.84 23.5,11.02 8.44,6.57 14.93,15.47 19.58,26.55 4.72,11.08 7.04,23.37 7.04,36.85 0,23.29 -6.51,41.09 -19.52,53.16 -13.07,12.15 -32.12,18.2 -57.28,18.2l-6.04 0 108.73 135.8 -43.01 0 -103.95 -135.8 -4.79 0 0 135.8 -33.05 0zm33.05 -256.08l0 95.18 25.83 0c26.48,0 44.21,-3.39 53.16,-10.22 8.97,-6.78 13.41,-18.65 13.41,-35.65 0,-18.25 -4.58,-31 -13.8,-38.37 -9.23,-7.3 -26.82,-10.94 -52.77,-10.94l-25.83 0zm180.09 256.08l0 -284.77 150.15 0 0 31.07 -116.28 0 0 81.64 116.28 0 0 31.47 -116.28 0 0 109.13 116.28 0 0 31.46 -150.15 0z"/>
   <path class="fil0" d="M7642.18 290.24l-35.43 0 0 105.82 -20.46 0 0 -105.82 -35.36 0 0 -17.44 91.25 0 0 17.44zm150.46 105.82l-20.27 0 0 -79.77c0,-6.54 0.4,-14.52 1.19,-23.98l-0.35 0c-1.26,5.38 -2.37,9.25 -3.34,11.6l-36.8 92.15 -14.09 0 -36.89 -91.44c-1.03,-2.71 -2.15,-6.82 -3.28,-12.31l-0.33 0c0.44,4.94 0.68,12.97 0.68,24.16l0 79.59 -18.9 0 0 -123.26 28.78 0 32.4 82.08c2.47,6.31 4.08,11.01 4.85,14.1l0.41 0c2.14,-6.46 3.85,-11.27 5.16,-14.45l33.01 -81.73 27.77 0 0 123.26z"/>
  </g>
 </g>
</svg>
